<?xml version="1.0" encoding="UTF-8" standalone="no"?>
<svg width="469px" height="426px" viewBox="0 0 469 426" version="1.1" xmlns="http://www.w3.org/2000/svg" xmlns:xlink="http://www.w3.org/1999/xlink">
    <!-- Generator: Sketch 41 (35326) - http://www.bohemiancoding.com/sketch -->
    <title>图</title>
    <desc>Created with Sketch.</desc>
    <defs>
        <linearGradient x1="50%" y1="0%" x2="50%" y2="100%" id="linearGradient-1">
            <stop stop-color="#FFFFFF" offset="0%"></stop>
            <stop stop-color="#FFFFFF" stop-opacity="0" offset="100%"></stop>
        </linearGradient>
    </defs>
    <g id="Page-1" stroke="none" stroke-width="1" fill="none" fill-rule="evenodd">
        <g id="Artboard-3-Copy" transform="translate(-212.000000, -251.000000)">
            <g id="Group-27-Copy">
                <g id="图" transform="translate(212.000000, 251.000000)">
                    <rect id="Rectangle" fill="#E2E8E4" x="0" y="0" width="469" height="426"></rect>
                    <path d="M126.109375,309.664063 C126.109375,309.664063 67.795574,294.333449 40.6132812,249.429688 C13.4309885,204.525926 26.4063795,170.59002 40.6132812,124.773438 C46.6284301,105.374868 84.3443152,75.8389132 96.0664062,67.5703125 C107.788497,59.3017118 127.644814,53.3496695 137.585937,48.3710938 C156.475397,38.911136 203.453125,35.2539063 203.453125,35.2539063 L237.942687,33.2539063 C237.942687,33.2539063 301.837533,36.0320232 321.742364,44.1289063 C363.121094,60.9609375 518.859009,145.142796 417.428596,356.018517 C406.776627,378.164159 359.157303,403.859041 321.742364,409.960938" id="Path-20" stroke="#FFFFFF" stroke-width="3" stroke-dasharray="20" opacity="0.546875"></path>
                    <g id="报表管理" transform="translate(103.698134, 279.698134) rotate(-102.000000) translate(-103.698134, -279.698134) translate(67.698134, 243.698134)">
                        <path d="M58.9726594,25.2797259 L68.6272824,20.7800141 C63.5551869,9.91649492 53.2178689,2.01293972 40.8946189,0.344852326 L39.4533281,10.8966187 C48.1268394,12.0706928 55.4026906,17.6335087 58.9726594,25.2797259 Z" id="Shape" fill="#FFFFFF"></path>
                        <path d="M60.3333571,28.9018868 C60.9855107,31.1470503 61.3419643,33.5180016 61.3419643,35.9734974 C61.3419643,49.9540507 50.008552,61.287463 36.0279987,61.287463 C22.0474453,61.287463 10.7139507,49.9540507 10.7139507,35.9734974 C10.7139507,21.9929441 22.0474453,10.6595318 36.0279987,10.6595318 L36.0279987,0.00799135642 C16.164809,0.00799135642 0.0624925408,16.1103078 0.0624925408,35.9734974 C0.0624925408,55.836687 16.1647267,71.9390035 36.0279164,71.9390035 C55.8911061,71.9390035 71.9934225,55.8366871 71.9934224,35.9734974 C71.9934224,32.4847802 71.4870608,29.1161705 70.5604462,25.9263639 L60.3333571,28.9018868 L60.3333571,28.9018868 Z" id="Shape" fill="#60B2F9"></path>
                    </g>
                    <g id="财务管理" transform="translate(0.000000, 178.000000)">
                        <ellipse id="Oval-6" fill="#FDCE5D" cx="24.2314085" cy="24.2276933" rx="24.1123234" ry="24.2276933"></ellipse>
                        <path d="M30.0561093,35.6799449 C27.3434362,35.6799449 25.3845245,35.5173806 24.0674675,35.182946 C22.9019946,34.8871896 22.2229944,34.4616216 21.9307853,33.8437902 L21.9056478,33.7906805 L21.8473073,33.7919528 C21.4156668,33.8010407 21.0706509,33.805003 20.7288903,33.805003 C17.4329924,33.805003 15.2135556,33.5602115 13.9438076,33.0563786 C12.6054108,32.5251729 12.425,31.761099 12.425,31.08376 L12.425,16.0850248 C12.425,15.4075767 12.6054108,14.6434665 13.9438076,14.1124062 C15.2135556,13.6085733 17.4328477,13.3636364 20.7288903,13.3636364 C24.0249327,13.3636364 26.2443695,13.6085733 27.5141176,14.1124062 C28.8525143,14.6434665 29.0329251,15.4075767 29.0329251,16.0850248 L29.0329251,22.7485968 L29.1436746,22.7468883 C29.4359922,22.7423444 29.7368096,22.7378004 30.0561093,22.7378004 C33.3520072,22.7378004 35.571444,22.982592 36.8410473,23.4865703 C38.1794441,24.0176305 38.3599996,24.7817408 38.3599996,25.4591889 L38.3599996,32.958411 C38.3599996,33.6358955 38.1795526,34.4001148 36.841192,34.9312114 C35.5715886,35.4350079 33.3521518,35.6799449 30.0561093,35.6799449 L30.0561093,35.6799449 Z M23.4367529,32.958411 C23.4367529,33.0740091 23.4367529,33.4253108 25.4266253,33.7111432 C26.6640021,33.8887934 28.3081351,33.9866155 30.0561093,33.9866155 C31.8039389,33.9866155 33.4480719,33.8887934 34.6854488,33.7111432 C36.675321,33.4253108 36.675321,33.0740091 36.675321,32.958411 L36.675321,31.2398173 L36.556506,31.2796951 C35.2494678,31.7174771 33.1231299,31.930352 30.0561093,31.930352 C26.9862676,31.930352 24.8600744,31.7183496 23.555568,31.2824214 L23.4367529,31.2427982 L23.4367529,32.958411 L23.4367529,32.958411 Z M14.1096786,31.08376 C14.1096786,31.1992126 14.1096786,31.5505143 16.0995508,31.8363468 C17.3370723,32.0141423 18.9810607,32.1119645 20.7288903,32.1119645 C20.9538252,32.1119645 21.1657391,32.1052758 21.3706002,32.0987689 C21.4679671,32.095788 21.5651531,32.0926618 21.6637859,32.0902262 L21.7520744,32.0881178 L21.7520744,30.0434868 L21.659952,30.0453043 C21.3245571,30.0514114 21.0378818,30.0555555 20.7288903,30.0555555 C17.661725,30.0555555 15.5355318,29.8426806 14.2286382,29.4048985 L14.1098232,29.3650209 L14.1098232,31.08376 L14.1096786,31.08376 Z M23.4367529,29.2088182 C23.4367529,29.3242344 23.4367529,29.6756815 25.4266253,29.9615503 C26.6641467,30.1391642 28.3081351,30.2370226 30.0561093,30.2370226 C31.8037942,30.2370226 33.4479273,30.1391642 34.6854488,29.9615503 C36.675321,29.6756815 36.675321,29.3242344 36.675321,29.2088182 L36.675321,27.4901881 L36.556506,27.5301021 C35.2497571,27.9677387 33.1234192,28.1806136 30.0561093,28.1806136 C26.9886547,28.1806136 24.8623169,27.9677387 23.555568,27.5301021 L23.4367529,27.4901881 L23.4367529,29.2088182 L23.4367529,29.2088182 Z M14.1096786,27.3339853 C14.1096786,27.449438 14.1096786,27.800885 16.0995508,28.0866085 C17.3370723,28.2643677 18.9810607,28.3622262 20.7288903,28.3622262 C20.9526677,28.3622262 21.1650519,28.3555375 21.3703109,28.3491396 C21.4675331,28.3461588 21.5648638,28.3430325 21.6637859,28.3407787 L21.7520744,28.3386339 L21.7520744,26.2955661 L21.659952,26.29742 C21.3559156,26.3030908 21.0514451,26.3059262 20.7288903,26.3059262 C17.6607485,26.3059262 15.5345552,26.0927969 14.2287829,25.6542878 L14.1098232,25.6144101 L14.1098232,27.3339853 L14.1096786,27.3339853 Z M30.0561093,24.4309843 C28.3081351,24.4309843 26.6640021,24.5288065 25.4266253,24.7064567 C23.4367529,24.9922891 23.4367529,25.3437363 23.4367529,25.4591889 C23.4367529,25.5746414 23.4367529,25.9260886 25.4266253,26.211921 C26.6640021,26.3895713 28.3081351,26.4873934 30.0561093,26.4873934 C31.8039389,26.4873934 33.4480719,26.3895713 34.6854488,26.211921 C36.675321,25.9260886 36.675321,25.5746414 36.675321,25.4591889 C36.675321,25.3437363 36.675321,24.9922891 34.6854488,24.7064567 C33.4480719,24.5288065 31.8039389,24.4309843 30.0561093,24.4309843 L30.0561093,24.4309843 Z M14.1096786,23.5843924 C14.1096786,23.699845 14.1096786,24.0511467 16.0995508,24.3369791 C17.3370723,24.5147748 18.9810607,24.6125969 20.7288903,24.6125969 C21.1445441,24.6125969 21.5380264,24.6040906 21.868213,24.5956934 L21.9224665,24.5942757 L21.946772,24.5455646 C22.1863914,24.0643423 22.680315,23.6967188 23.4565373,23.4217918 C24.3334903,23.1113856 25.5786434,22.9123243 27.2631772,22.8136298 L27.3482467,22.8086497 L27.3482467,21.8646354 L27.2292869,21.9045495 C25.9236593,22.3430586 23.7974661,22.5561879 20.7288903,22.5561879 C17.6603144,22.5561879 15.5341212,22.3430586 14.2287829,21.9045495 L14.1096786,21.8645264 L14.1096786,23.5843924 L14.1096786,23.5843924 Z M14.1096786,19.8346541 C14.1096786,19.9502157 14.1096786,20.3015174 16.0995508,20.5873863 C17.3370723,20.7651455 18.9810607,20.863004 20.7288903,20.863004 C22.4767198,20.863004 24.1208529,20.7651455 25.3583743,20.5873863 C27.3482467,20.3015174 27.3482467,19.9502157 27.3482467,19.8346541 L27.3482467,18.1150425 L27.2292869,18.1549566 C25.9236593,18.5932839 23.7974661,18.8064496 20.7288903,18.8064496 C17.6603144,18.8064496 15.5341212,18.5934293 14.2287829,18.1549566 L14.1096786,18.1148971 L14.1096786,19.8346541 L14.1096786,19.8346541 Z M20.7288903,15.0568203 C18.9810607,15.0568203 17.3370723,15.1546424 16.0995508,15.332438 C14.1096786,15.6181251 14.1096786,15.9694632 14.1096786,16.0850248 C14.1096786,16.2004774 14.1096786,16.5519245 16.0995508,16.8376116 C17.3370723,17.0154072 18.9810607,17.1132293 20.7288903,17.1132293 C22.4767198,17.1132293 24.1208529,17.0154072 25.3583743,16.8376116 C27.3482467,16.5519245 27.3482467,16.2004774 27.3482467,16.0850248 C27.3482467,15.9694632 27.3482467,15.6181251 25.3583743,15.332438 C24.1208529,15.1546424 22.4767198,15.0568203 20.7288903,15.0568203 L20.7288903,15.0568203 Z" id="Shape" fill="#FFFFFF" opacity="0.758803638"></path>
                    </g>
                    <ellipse id="Oval-6-Copy" fill="#B4DD77" cx="438.758364" cy="169.649514" rx="29.8614454" ry="29.8614454"></ellipse>
                    <path d="M448.095702,181.06701 C447.993141,179.360606 447.316117,178.023546 446.025618,176.98001 C444.946532,176.107303 443.585247,175.569962 442.38441,175.095857 C440.917419,174.516674 439.645167,174.014254 439.261352,173.133367 C439.201578,172.422365 439.206611,171.870553 439.212274,171.235371 C439.212903,171.138788 439.213847,171.040632 439.214476,170.940274 C439.526876,170.628188 439.793659,170.161004 439.980533,169.776874 C440.150418,169.42798 440.427583,168.783989 440.567266,168.051909 C440.771758,167.946832 440.959576,167.789216 441.118135,167.586927 C441.43085,167.188011 441.634083,166.613862 441.722172,165.880524 C441.804283,165.196893 441.605454,164.670563 441.331121,164.324186 C441.506984,163.726756 441.755834,162.724432 441.846754,161.590291 C441.974168,160.001549 441.743565,158.721117 441.16155,157.783917 C440.622322,156.915929 439.805614,156.369464 438.731247,156.156793 C438.138536,155.408039 437.003765,155 435.489584,155 C435.485809,155 435.482034,155 435.477944,155.000315 C433.168448,155.042471 431.478404,155.748439 430.454373,157.097769 C429.240951,158.696578 429.015382,161.119331 429.782382,164.303422 C429.49924,164.649799 429.290659,165.183365 429.374657,165.880523 C429.462746,166.613862 429.665979,167.188011 429.978379,167.586927 C430.137568,167.789845 430.326015,167.947776 430.531136,168.052853 C430.746009,169.138546 431.338406,170.36172 431.915386,170.938071 C431.916016,171.036857 431.916645,171.133754 431.917589,171.228764 C431.922937,171.866148 431.92797,172.419849 431.867881,173.133367 C431.484066,174.013939 430.206466,174.516359 428.733498,175.095857 C427.528256,175.569962 426.161938,176.106989 425.078762,176.979696 C423.783229,178.023232 423.103688,179.360292 423.001128,181.066695 C422.990746,181.240041 423.052408,181.409612 423.171013,181.536082 C423.289933,181.662237 423.455728,181.733652 423.629074,181.733652 L447.467441,181.733652 C447.641101,181.733652 447.806582,181.662237 447.925502,181.536082 C448.044421,181.409612 448.106083,181.240041 448.095702,181.06701 Z M424.337559,180.475243 C424.529152,179.449324 425.025279,178.638909 425.868414,177.959682 C426.801525,177.207782 428.017777,176.729587 429.194076,176.266807 C430.912749,175.591041 432.536097,174.952398 433.076269,173.500193 C433.095774,173.447655 433.108044,173.392914 433.113078,173.337229 C433.187009,172.51769 433.181661,171.886283 433.175998,171.218068 C433.174425,171.032452 433.172852,170.840545 433.172852,170.640143 C433.172852,170.409225 433.046382,170.197183 432.844093,170.087387 C432.604365,169.91813 431.84523,168.689608 431.719074,167.507018 C431.686985,167.206258 431.445685,166.970935 431.14461,166.946396 C431.064701,166.93979 430.742234,166.714534 430.623943,165.730458 C430.563225,165.226151 430.80893,165.047771 430.810503,165.046827 C431.047084,164.902425 431.161284,164.619912 431.091757,164.351556 C430.722099,162.929553 430.558506,161.664852 430.605382,160.592372 C430.654774,159.457601 430.941063,158.537704 431.456696,157.858477 C432.235022,156.832873 433.59379,156.294589 435.495247,156.25841 C436.669343,156.259353 437.537016,156.552877 437.816698,157.043972 C437.913281,157.213542 438.083166,157.329001 438.276646,157.355743 C439.114433,157.472146 439.708402,157.829534 440.092531,158.448042 C441.055844,159.998717 440.498369,162.863172 440.017027,164.311287 C439.924534,164.58971 440.035274,164.894245 440.286012,165.046513 C440.288529,165.0484 440.533289,165.225836 440.472886,165.730458 C440.354595,166.714534 440.032128,166.93979 439.952219,166.946396 C439.651144,166.970935 439.409844,167.206258 439.377755,167.506703 C439.250655,168.695586 438.516059,169.920018 438.284197,170.088016 C438.082851,170.198441 437.957325,170.409854 437.957325,170.640143 C437.957325,170.842747 437.955437,171.036542 437.953864,171.224045 C437.947887,171.890687 437.942224,172.519892 438.016156,173.337229 C438.021189,173.392914 438.033459,173.447655 438.052964,173.500193 C438.592822,174.951769 440.210193,175.590411 441.922259,176.266177 C443.093524,176.728643 444.305057,177.206839 445.234393,177.958424 C446.074381,178.637965 446.568307,179.448381 446.759271,180.475243 L424.337559,180.475243 L424.337559,180.475243 Z M454.198673,178.140264 C454.079754,178.266419 453.914273,178.337834 453.740927,178.337834 L449.881699,178.337834 C449.534378,178.337834 449.252495,178.056265 449.252495,177.708629 C449.252495,177.361308 449.534378,177.079425 449.881699,177.079425 L453.023004,177.079425 C452.851546,176.294492 452.453259,175.66686 451.798257,175.137384 C451.027796,174.514157 450.014776,174.114297 449.03479,173.727965 C447.571889,173.15067 446.18984,172.605149 445.71951,171.341392 C445.69969,171.288853 445.68742,171.233798 445.682387,171.178113 C445.620095,170.484415 445.624814,169.952108 445.629848,169.388655 C445.631107,169.230724 445.63268,169.067446 445.63268,168.896931 C445.63268,168.669474 445.755374,168.460263 445.952316,168.348894 C446.163414,168.178379 446.730327,167.178573 446.830371,166.247979 C446.862146,165.95068 447.099041,165.717245 447.396341,165.688931 C447.453598,165.667852 447.668157,165.457383 447.7531,164.751101 C447.793998,164.410387 447.650854,164.2814 447.636068,164.268815 C447.389419,164.11529 447.279938,163.812642 447.371487,163.536421 C447.771347,162.332752 448.236958,159.956246 447.445733,158.682736 C447.138681,158.188495 446.661429,157.902522 445.986922,157.808456 C445.793441,157.781714 445.623556,157.666255 445.526973,157.49637 C445.313044,157.12042 444.597638,156.886671 443.659179,156.885727 C443.283858,156.892963 442.929931,156.923794 442.606834,156.977591 C442.264232,157.034534 441.939877,156.802986 441.882934,156.46007 C441.825991,156.117468 442.057538,155.793113 442.400455,155.73617 C442.785528,155.671991 443.20332,155.635497 443.641876,155.627632 C443.645651,155.627317 443.649426,155.627317 443.653201,155.627317 C444.941184,155.627317 445.914249,155.973694 446.438691,156.610135 C447.353555,156.799526 448.051343,157.272688 448.514752,158.01861 C449.601389,159.767799 448.996723,162.4652 448.681491,163.557814 C448.911466,163.867698 449.071598,164.321669 449.0027,164.901166 C448.925937,165.537607 448.747558,166.03751 448.471966,166.387977 C448.340148,166.555975 448.185678,166.689366 448.017051,166.783747 C447.838672,167.642612 447.387846,168.666328 446.889831,169.188253 C446.889516,169.259982 446.888887,169.330453 446.888258,169.399666 C446.883539,169.926939 446.879449,170.38563 446.927583,170.972363 C447.245961,171.668893 448.340462,172.100842 449.496941,172.55733 C450.514994,172.959077 451.668956,173.414307 452.589482,174.158656 C453.699399,175.055902 454.281414,176.20483 454.368873,177.671192 C454.379255,177.844223 454.317593,178.014108 454.198673,178.140264 Z" id="客户" stroke="#FFFFFF" stroke-width="0.5" fill="#FFFFFF" opacity="0.695370802"></path>
                    <ellipse id="Oval-7" fill="#CAD7C6" cx="235.361912" cy="363.203928" rx="54.0823956" ry="5.64049524"></ellipse>
                    <g id="电脑" transform="translate(107.621284, 110.708817)">
                        <path d="M13.7105984,40.1050365 L240.442288,40.1050365 C247.891508,40.1050365 253.986434,46.2005582 253.986434,53.6491819 L253.986434,193.317588 L0.166453024,193.317588 L0.166453024,53.6485852 C0.166453024,46.199365 6.26078149,40.1050365 13.7105984,40.1050365 Z" id="Shape" fill="#666666"></path>
                        <path d="M9.36372836,184.122102 L244.788562,184.122102 L244.788562,53.6497785 C244.788562,51.2770771 242.813796,49.3023118 240.442288,49.3023118 L13.7117916,49.3023118 C11.3390902,49.3023118 9.36551818,51.2770771 9.36551818,53.6497785 L9.36551818,184.122699 L9.36372836,184.122699 L9.36372836,184.122102 Z" id="Shape" fill="#B4DD77"></path>
                        <path d="M253.98524,193.318781 L253.98524,208.130117 C253.98524,215.581127 247.267459,221.674262 239.05518,221.674262 L15.0965137,221.674262 C6.88423457,221.674262 0.166453024,215.581127 0.166453024,208.130117 L0.166453024,193.318781 L253.98524,193.318781 Z" id="Shape" fill="#FFFFFF"></path>
                        <path d="M25.6146743,105.151179 C47.1455818,105.151179 65.3325136,119.45898 71.192376,139.083732 C80.7905705,143.415687 87.8203769,152.432787 89.368569,163.217631 C91.0599465,162.810746 92.8270929,162.594178 94.6437576,162.594178 C99.8688314,162.594178 104.677474,164.375046 108.495155,167.363445 C109.694929,159.787744 116.2564,153.994701 124.16978,153.994701 C125.163128,153.994701 126.134999,154.087175 127.076443,154.261384 C128.018484,154.086579 128.990355,153.994701 129.983107,153.994701 C137.896486,153.994701 144.457957,159.787744 145.657732,167.363445 C149.474816,164.375046 154.284652,162.594178 159.508532,162.594178 C161.325197,162.594178 163.090554,162.811342 164.783721,163.217631 C166.331913,152.432191 173.361719,143.41509 182.959914,139.083732 C188.821566,119.45898 207.007305,105.151179 228.537616,105.151179 C234.245344,105.151179 239.717412,106.157653 244.788562,108.000569 L244.788562,184.121505 L137.040357,184.121505 L137.04155,184.084516 L136.967571,184.121505 L117.187702,184.121505 L117.113723,184.084516 L117.114916,184.121505 L9.36551818,184.121505 L9.36551818,108.000569 C14.4360711,106.157653 19.9081396,105.151179 25.6164641,105.151179 L25.6146743,105.151179 L25.6146743,105.151179 Z" id="Shape" fill="#ECF0F1"></path>
                        <g id="Group" transform="translate(124.094011, 51.308101)" fill="#FF5B62">
                            <path d="M46.9677933,14.9962839 L50.9101645,29.5528693 L32.4022587,50.4823982 L33.537003,25.3277069 L46.9689865,14.9962839 C46.9689865,14.9962839 46.9677933,14.9962839 46.9677933,14.9962839 Z" id="Shape"></path>
                            <polygon id="Shape" points="34.3465971 3.26403045 19.5418237 0.394953054 0.0184947805 20.3812481 25.023438 17.4125375 34.3454039 3.26224063"></polygon>
                        </g>
                        <path d="M156.922843,80.5543146 L151.090424,75.1335541 L145.259199,69.7139868 C156.483144,56.5832893 170.751569,-2.52423923 220.84677,0.0859112382 C229.465338,48.7737191 168.25358,69.6453771 156.922843,80.5543146 Z" id="Shape" fill="#FDCE5D"></path>
                        <path d="M220.25792,20.8108042 C212.820035,17.5593025 204.404314,9.56418792 200.839594,2.64654342 C206.79551,0.672971366 213.42559,-0.302479151 220.845577,0.0841214208 C222.181974,7.63953754 221.835942,14.5255619 220.25792,20.8108042 L220.25792,20.8108042 Z" id="Shape" fill="#FF5B62"></path>
                        <rect id="Rectangle-path" fill="#666666" transform="translate(149.348180, 76.974908) rotate(222.904994) translate(-149.348180, -76.974908) " x="141.364818" y="74.1242619" width="15.9667233" height="5.70129319"></rect>
                        <ellipse id="Oval" fill="#FFFFFF" cx="194.99226" cy="29.0415782" rx="8.97951421" ry="8.97951421"></ellipse>
                        <ellipse id="Oval" fill="#95D13B" cx="194.99226" cy="29.0409816" rx="7.37166152" ry="7.37166152"></ellipse>
                        <g id="Group" transform="translate(98.439960, 88.297662)">
                            <path d="M25.9786039,0.426573162 C16.7574643,7.07335861 0.628822535,53.1695108 37.3427516,77.5790413 C37.3427516,77.5790413 9.30168136,44.9262081 35.7718884,13.5954535 C31.1046411,15.6131743 22.444311,23.247939 25.9786039,0.426573162 Z" id="Shape" fill="url(#linearGradient-1)"></path>
                            <ellipse id="Oval" fill="#FFFFFF" cx="5.90818745" cy="65.2722565" rx="5.3497644" ry="5.3497644"></ellipse>
                            <ellipse id="Oval" fill="#FFFFFF" cx="30.2198747" cy="55.2152721" rx="1.70330962" ry="1.70330962"></ellipse>
                            <ellipse id="Oval" fill="#FFFFFF" cx="9.46873099" cy="49.5761539" rx="2.32556949" ry="2.32556949"></ellipse>
                            <ellipse id="Oval" fill="#FFFFFF" cx="49.9884085" cy="69.5177035" rx="2.30707471" ry="2.30707471"></ellipse>
                        </g>
                        <ellipse id="Oval" fill="#B6B6B8" cx="127.076443" cy="206.903495" rx="4.6630711" ry="4.6630711"></ellipse>
                        <polygon id="Shape" fill="#C2C2C4" points="156.348908 242.980846 177.883395 249.881189 76.2677017 249.881189 93.6432497 242.980846 93.6432497 221.674859 156.349504 221.674859 156.349504 242.980846"></polygon>
                        <polygon id="Shape" fill="#B0B0B0" points="156.348908 242.980846 93.6426531 221.674859 156.348908 221.674859"></polygon>
                        <polygon id="Shape" fill="#ECF0F1" points="93.6426531 242.980846 156.348908 242.980846 177.883395 249.881189 177.883395 252.852286 127.07704 252.852286 76.2677017 252.852286 76.2677017 249.881189"></polygon>
                    </g>
                    <g id="Group-29" transform="translate(217.000000, 0.000000)">
                        <ellipse id="Oval-5" fill="#FDCE5D" cx="32.4187424" cy="32.7281542" rx="32.2718458" ry="32.2718458"></ellipse>
                        <g id="订单管理" transform="translate(19.000000, 18.000000)" fill="#FFFFFF">
                            <path d="M24.4250005,1.69744401 L24.2706719,1.69744401 L23.4342029,1.69744401 L19.6700922,1.69744401 C19.2083613,1.69744401 18.8336232,2.07218213 18.8336232,2.53391304 C18.8336232,2.99564395 19.2083613,3.37038208 19.6700922,3.37038208 L23.4342029,3.37038208 L24.2706719,3.37038208 L24.4250005,3.37038208 C25.2577054,3.37038208 25.5253755,3.64097982 25.5253755,4.48372237 L25.5253755,27.2486455 C25.5253755,28.1089539 25.1431091,29.3009223 24.4250005,29.3009223 L3.62285196,29.3009223 C2.80854935,29.3009223 1.68600791,28.1114633 1.68600791,27.2486455 L1.68600791,4.48372237 C1.68600791,3.72420848 2.84200812,3.37038208 3.62285196,3.37038208 L3.7771805,3.37038208 L4.61364954,3.37038208 L8.37776021,3.37038208 C8.83949112,3.37038208 9.21422925,2.99564395 9.21422925,2.53391304 C9.21422925,2.07218213 8.83949112,1.69744401 8.37776021,1.69744401 L4.61364954,1.69744401 L3.7771805,1.69744401 L3.62285196,1.69744401 C1.87295874,1.69744401 0.0130698287,2.67402161 0.0130698287,4.48372237 L0.0130698287,27.2486455 C0.0130698287,29.024051 1.90223515,30.9738603 3.62285196,30.9738603 L24.4250005,30.9738603 C26.2263365,30.9738603 27.1983136,29.0545821 27.1983136,27.2486455 L27.1983136,4.48372237 C27.1983136,2.71291742 26.1874407,1.69744401 24.4250005,1.69744401 Z" id="Shape" opacity="0.69974347"></path>
                            <path d="M10.8871673,1.69744401 L12.9783399,1.69744401 L12.9783399,3.37038208 L11.7236364,3.37038208 C11.2619055,3.37038208 10.8871673,3.74512021 10.8871673,4.20685112 C10.8871673,4.66858203 11.2619055,5.04332016 11.7236364,5.04332016 L15.9059816,5.04332016 C16.3677125,5.04332016 16.7424506,4.66858203 16.7424506,4.20685112 C16.7424506,3.74512021 16.3677125,3.37038208 15.9059816,3.37038208 L14.651278,3.37038208 L14.651278,1.69744401 L16.7424506,1.69744401 C17.2041815,1.69744401 17.5789196,1.32270588 17.5789196,0.860974967 C17.5789196,0.399244058 17.2041815,0.0245059289 16.7424506,0.0245059289 L10.8871673,0.0245059289 C10.4254364,0.0245059289 10.0506983,0.399244058 10.0506983,0.860974967 C10.0506983,1.32270588 10.4254364,1.69744401 10.8871673,1.69744401 Z" id="Shape" opacity="0.700559701"></path>
                            <path d="M22.1794993,8.80743083 L5.8683531,8.80743083 C5.40662219,8.80743083 5.03188406,9.18216896 5.03188406,9.64389987 C5.03188406,10.1056308 5.40662219,10.4803689 5.8683531,10.4803689 L22.1794993,10.4803689 C22.6412303,10.4803689 23.0159684,10.1056308 23.0159684,9.64389987 C23.0159684,9.18216896 22.6412303,8.80743083 22.1794993,8.80743083 Z" id="Shape" opacity="0.700559701"></path>
                            <path d="M22.1794993,14.6627141 L5.8683531,14.6627141 C5.40662219,14.6627141 5.03188406,15.0374522 5.03188406,15.4991831 C5.03188406,15.960914 5.40662219,16.3356522 5.8683531,16.3356522 L22.1794993,16.3356522 C22.6412303,16.3356522 23.0159684,15.960914 23.0159684,15.4991831 C23.0159684,15.0374522 22.6412303,14.6627141 22.1794993,14.6627141 Z" id="Shape" opacity="0.700559701"></path>
                            <path d="M22.1794993,20.0997628 L5.8683531,20.0997628 C5.40662219,20.0997628 5.03188406,20.474501 5.03188406,20.9362319 C5.03188406,21.3979628 5.40662219,21.7727009 5.8683531,21.7727009 L22.1794993,21.7727009 C22.6412303,21.7727009 23.0159684,21.3979628 23.0159684,20.9362319 C23.0159684,20.474501 22.6412303,20.0997628 22.1794993,20.0997628 Z" id="Shape" opacity="0.700559701"></path>
                        </g>
                    </g>
                    <ellipse id="Oval-5-Copy" fill="#60B2F9" cx="92.9693517" cy="76.8128422" rx="31.8128422" ry="31.8128422"></ellipse>
                    <g id="库存管理-2" opacity="0.65910681" transform="translate(77.000000, 61.000000)" fill="#FFFFFF">
                        <path d="M33.3324966,29.6739414 L29.9923739,26.3296384 C31.1492089,24.9947673 31.7849966,23.2861152 31.7824913,21.5187744 C31.7824913,17.4579394 28.4946253,14.1660376 24.4389454,14.1660376 C20.3831865,14.1660376 17.094886,17.457979 17.094886,21.5187744 C17.094886,25.5795697 20.3827126,28.8715112 24.4384319,28.8715112 C25.9336526,28.8715112 27.3243204,28.4243017 28.4840397,27.6559619 L31.9159967,31.0922537 C32.3075071,31.4806553 32.9389322,31.4790734 33.3285072,31.0886944 C33.5168402,30.9018468 33.6231211,30.6476083 33.6238697,30.3821472 C33.6246182,30.1166861 33.5197728,29.8618508 33.3324966,29.6739414 L33.3324966,29.6739414 Z M24.4384319,27.2728202 C21.2642825,27.2728202 18.6910652,24.6963823 18.6910652,21.5187744 C18.6910652,18.3406523 21.2642825,15.7642145 24.4384319,15.7642144 C27.6125814,15.7642144 30.1857987,18.3406523 30.1857987,21.5187744 C30.1857592,24.6963823 27.6125419,27.2728202 24.4384319,27.2728202 Z" id="Shape"></path>
                        <path d="M29.3523775,7.5099399 L29.3523775,7.48146531 L29.3442804,7.48146531 C29.2732223,7.26703571 28.9899776,7.13799038 28.7306296,7.004832 L14.9535073,0.107886647 C14.7318938,-0.00438727878 14.4701492,-0.00438727878 14.2485357,0.107886647 L0.471413397,7.004832 C-0.0411998367,7.34174199 0.0389823994,8.08773712 0.0389823608,8.16801971 L0.0389823608,22.884725 C0.0389823608,23.1576462 0.183112851,23.4142736 0.415562332,23.5585845 C0.415562332,23.5585845 13.8962869,31.7147798 14.1286969,31.8189494 C14.601219,32.0516898 14.8976167,31.9871473 15.1219689,31.8748308 L19.6075914,29.2765229 C19.791884,29.169615 19.9259592,28.9935042 19.9800818,28.7872482 C20.0342044,28.5809922 20.0039009,28.3616395 19.8958919,28.1778381 C19.6763585,27.7952501 19.189064,27.6625268 18.8062037,27.8810694 L15.7067066,29.6855686 L15.3869653,29.8537665 L15.3869653,15.9959265 L27.5780201,9.06651223 L27.6165707,9.04313932 L27.6165707,12.7355445 C27.6165707,13.1568105 27.9596558,13.4972798 28.3829627,13.4972798 L28.5859856,13.4972798 C29.0092925,13.4972798 29.3523775,13.1562963 29.3523775,12.7355445 L29.3523775,7.64918864 C29.3549055,7.64056715 29.3574728,7.63242025 29.3590133,7.62482705 C29.3630169,7.58642393 29.3607759,7.54762491 29.3523775,7.5099399 L29.3523775,7.5099399 Z M13.8166577,29.8141789 L1.60174569,22.4441595 L1.60174569,9.0507721 L13.8166577,15.9959661 L13.8166577,29.8141789 L13.8166577,29.8141789 Z M14.6018115,14.632507 L2.48284163,7.75082717 L14.6018115,1.68731776 L26.7212948,7.75082717 L14.6018115,14.632507 L14.6018115,14.632507 Z" id="Shape"></path>
                        <path d="M4.89664243,13.0195787 C4.72066613,12.9118305 4.50890984,12.8791691 4.30870535,12.928895 C4.1084947,12.9786703 3.93655386,13.1066976 3.83132489,13.284353 C3.60815763,13.6542856 3.72649551,14.1353087 4.09576822,14.3591508 L8.6935273,17.1175097 C8.87016916,17.2258896 9.08311309,17.2580383 9.2838187,17.2066275 C9.48452431,17.1552166 9.65588703,17.0246276 9.75884488,16.844628 C9.86649317,16.6684386 9.89912092,16.4564 9.84943024,16.2559392 C9.79973957,16.0554785 9.67187674,15.8833223 9.49444104,15.7779772 L4.89664243,13.0195787 L4.89664243,13.0195787 Z" id="Shape"></path>
                    </g>
                    <g id="商品" transform="translate(289.000000, 369.000000)">
                        <rect id="Rectangle-path" fill="#FDCE5D" x="0.223060535" y="14.9312458" width="42.8374589" height="41.6204879"></rect>
                        <g id="Group" transform="translate(9.283944, 17.773517)" fill="#E6BD20">
                            <ellipse id="Oval" cx="2.60471671" cy="2.63170655" rx="2.5817335" ry="2.54820449"></ellipse>
                            <ellipse id="Oval" cx="22.1111163" cy="2.63170655" rx="2.5817335" ry="2.54820449"></ellipse>
                        </g>
                        <path d="M31.3471199,21.6321469 C30.6777868,21.6321469 30.151852,21.1130424 30.151852,20.452402 L30.151852,11.2977929 C30.151852,6.67330972 26.3270512,2.89818164 21.6417195,2.89818164 C16.9563879,2.89818164 13.131587,6.67330972 13.131587,11.2977929 L13.131587,20.4995806 C13.131587,21.1602211 12.6056523,21.6793255 11.9363192,21.6793255 C11.2669861,21.6793255 10.7410513,21.1602211 10.7410513,20.4995806 L10.7410513,11.2977929 C10.7410513,5.3520288 15.6175807,0.538691794 21.6417195,0.538691794 C27.6658583,0.538691794 32.5423877,5.35188963 32.5423877,11.2977929 L32.5423877,20.4995806 C32.5423877,21.1130424 32.016594,21.6321469 31.3471199,21.6321469 Z" id="Shape" fill="#FFFFFC"></path>
                    </g>
                </g>
            </g>
        </g>
    </g>
</svg>