<?xml version="1.0" encoding="UTF-8" standalone="no"?>
<svg width="140px" height="140px" viewBox="0 0 140 140" version="1.1" xmlns="http://www.w3.org/2000/svg" xmlns:xlink="http://www.w3.org/1999/xlink">
    <!-- Generator: Sketch 41 (35326) - http://www.bohemiancoding.com/sketch -->
    <title>peitu_wurenwu</title>
    <desc>Created with Sketch.</desc>
    <defs>
        <path d="M8.1362738,33.2867815 C8.1362738,14.839219 1.31100328,3.63682363 1.31100328,3.63682363 C0.314874731,1.67308984 1.29726872,0.0811690796 3.49848061,0.0811690796 L46.6505708,0.0811690796 C48.8548097,0.0811690796 51.5547116,1.61616272 52.5846221,3.57574521 C52.5846221,3.57574521 58.9510308,12.5785635 58.9510308,31.073074 C58.9510308,49.5675845 51.2594604,71.9784115 51.2594604,71.9784115 C50.9182799,73.0238906 49.7541661,73.8714189 48.6371715,73.8714189 L1.51187993,73.8714189 C0.40481027,73.8714189 -0.175305522,73.0290665 0.198907445,72.0003752 C0.198907445,72.0003752 8.1362738,51.734344 8.1362738,33.2867815 Z" id="path-1"></path>
        <mask id="mask-2" maskContentUnits="userSpaceOnUse" maskUnits="objectBoundingBox" x="0" y="0" width="58.8656299" height="73.7902498" fill="white">
            <use xlink:href="#path-1"></use>
        </mask>
        <path d="M30.4490809,40.9727734 C31.0254186,41.5491111 31.9598467,41.5491111 32.5361844,40.9727734 L48.1894602,25.3194975 C48.7657979,24.7431598 48.7657979,23.8087318 48.1894602,23.2323941 C47.6131225,22.6560564 46.6786944,22.6560564 46.1023567,23.2323941 C46.1023567,23.2323941 31.8337531,38.1832387 31.4825375,37.832023 C28.44221,34.7916956 22.3615551,28.7110406 22.3615551,28.7110406 C21.7852174,28.1347029 20.8507893,28.1347029 20.2744516,28.7110406 C19.6981139,29.2873783 19.6981139,30.2218064 20.2744516,30.7981441 L30.4490809,40.9727734 Z" id="path-3"></path>
        <mask id="mask-4" maskContentUnits="userSpaceOnUse" maskUnits="objectBoundingBox" x="0" y="0" width="28.7795151" height="18.6048858" fill="white">
            <use xlink:href="#path-3"></use>
        </mask>
        <path d="M10.9037381,40.7000269 C10.9037381,18.2000269 2.20648426,3.74447182 2.20648426,3.74447182 C1.19734363,1.78692895 2.17854233,0.200026902 4.37549681,0.200026902 L58.7502478,0.200026902 C60.957301,0.200026902 63.6727223,1.73950808 64.7185723,3.67582541 C64.7185723,3.67582541 72.8811422,15.4427656 72.8811422,38.0000269 C72.8811422,60.5572882 63.368983,88.3017749 63.368983,88.3017749 C63.0251792,89.3501505 61.8528465,90.2000269 60.7420395,90.2000269 L2.38370517,90.2000269 C1.27668814,90.2000269 0.694249839,89.3670131 1.07796362,88.3201215 C1.07796362,88.3201215 10.9037381,63.2000269 10.9037381,40.7000269 Z" id="path-5"></path>
        <mask id="mask-6" maskContentUnits="userSpaceOnUse" maskUnits="objectBoundingBox" x="0" y="0" width="71.9211915" height="90" fill="white">
            <use xlink:href="#path-5"></use>
        </mask>
        <path d="M38.118074,50.0744262 C38.8210177,50.7773699 39.9607147,50.7773699 40.6636584,50.0744262 L59.7555415,30.9825431 C60.4584852,30.2795994 60.4584852,29.1399024 59.7555415,28.4369587 C59.0525978,27.734015 57.9129008,27.734015 57.2099571,28.4369587 C57.2099571,28.4369587 39.8069217,46.6721051 39.3785534,46.2437368 C35.6703471,42.5355305 28.2539344,35.1191178 28.2539344,35.1191178 C27.5509907,34.4161741 26.4112937,34.4161741 25.70835,35.1191178 C25.0054062,35.8220615 25.0054062,36.9617585 25.70835,37.6647022 L38.118074,50.0744262 Z" id="path-7"></path>
        <mask id="mask-8" maskContentUnits="userSpaceOnUse" maskUnits="objectBoundingBox" x="-0.5" y="-0.5" width="36.1016071" height="23.6918831">
            <rect x="24.6811422" y="27.4097509" width="36.1016071" height="23.6918831" fill="white"></rect>
            <use xlink:href="#path-7" fill="black"></use>
        </mask>
        <path d="M22.1826843,74.9524101 C22.5548421,75.0150407 22.9828895,75.0846869 23.4610778,75.1595918 C24.8246783,75.3731904 26.3193919,75.5866445 27.89944,75.7858848 C30.8983223,76.1640367 33.8446938,76.4458509 36.6130045,76.5914899 C37.968704,76.6628124 39.2609762,76.7000269 40.4811422,76.7000269 C44.2567732,76.7000269 47.6150804,76.350137 50.5191647,75.7645076 C52.2916114,75.4070809 53.5372144,75.0420675 54.2202895,74.7832558 C55.1499111,74.4310295 55.6179825,73.3918864 55.2657562,72.4622647 C54.9135298,71.5326431 53.8743868,71.0645717 52.9447651,71.416798 C52.8389851,71.4568773 52.590401,71.5405573 52.2035638,71.6539166 C51.53267,71.8505164 50.7324889,72.0490205 49.8075242,72.2355463 C47.1328342,72.7749168 44.0123671,73.1000269 40.4811422,73.1000269 C39.3273276,73.1000269 38.0975371,73.0646117 36.8021366,72.9964616 C34.1299233,72.8558782 31.2679106,72.5821327 28.3498249,72.214169 C26.8072925,72.0196593 25.3478229,71.8112384 24.0181993,71.602962 C23.5537591,71.5302106 23.1391286,71.4627475 22.7801292,71.4023312 C22.5666067,71.3663974 22.4202862,71.3410182 22.346979,71.3279527 C21.3682895,71.1535208 20.4334998,71.8055005 20.2590679,72.78419 C20.0846361,73.7628796 20.7366157,74.6976692 21.7153053,74.8721011 C21.7997998,74.8871606 21.9575124,74.9145158 22.1826843,74.9524101 Z" id="path-9"></path>
        <mask id="mask-10" maskContentUnits="userSpaceOnUse" maskUnits="objectBoundingBox" x="0" y="0" width="35.1521768" height="5.40048687" fill="white">
            <use xlink:href="#path-9"></use>
        </mask>
        <path d="M24.8826843,64.1524101 C25.2548421,64.2150407 25.6828895,64.2846869 26.1610778,64.3595918 C27.5246783,64.5731904 29.0193919,64.7866445 30.59944,64.9858848 C33.5983223,65.3640367 36.5446938,65.6458509 39.3130045,65.7914899 C40.668704,65.8628124 41.9609762,65.9000269 43.1811422,65.9000269 C46.9567732,65.9000269 50.3150804,65.550137 53.2191647,64.9645076 C54.9916114,64.6070809 56.2372144,64.2420675 56.9202895,63.9832558 C57.8499111,63.6310295 58.3179825,62.5918864 57.9657562,61.6622647 C57.6135298,60.7326431 56.5743868,60.2645717 55.6447651,60.616798 C55.5389851,60.6568773 55.290401,60.7405573 54.9035638,60.8539166 C54.23267,61.0505164 53.4324889,61.2490205 52.5075242,61.4355463 C49.8328342,61.9749168 46.7123671,62.3000269 43.1811422,62.3000269 C42.0273276,62.3000269 40.7975371,62.2646117 39.5021366,62.1964616 C36.8299233,62.0558782 33.9679106,61.7821327 31.0498249,61.414169 C29.5072925,61.2196593 28.0478229,61.0112384 26.7181993,60.802962 C26.2537591,60.7302106 25.8391286,60.6627475 25.4801292,60.6023312 C25.2666067,60.5663974 25.1202862,60.5410182 25.046979,60.5279527 C24.0682895,60.3535208 23.1334998,61.0055005 22.9590679,61.98419 C22.7846361,62.9628796 23.4366157,63.8976692 24.4153053,64.0721011 C24.4997998,64.0871606 24.6575124,64.1145158 24.8826843,64.1524101 Z" id="path-11"></path>
        <mask id="mask-12" maskContentUnits="userSpaceOnUse" maskUnits="objectBoundingBox" x="0" y="0" width="35.1521768" height="5.40048687" fill="white">
            <use xlink:href="#path-11"></use>
        </mask>
    </defs>
    <g id="设计规范" stroke="none" stroke-width="1" fill="none" fill-rule="evenodd">
        <g id="基础规范01" transform="translate(-756.000000, -3213.000000)">
            <g id="无聚焦任务" transform="translate(756.000000, 3213.000000)">
                <g id="Group" transform="translate(2.000000, 1.000000)">
                    <ellipse id="Oval-2" fill="#EDEFF0" cx="74.5" cy="133.5" rx="23.5" ry="5.5"></ellipse>
                    <ellipse id="Oval-2" fill="#EDEFF0" cx="122.5" cy="134.807692" rx="9.5" ry="2.19230769"></ellipse>
                    <g id="无聚焦任务" transform="translate(63.022601, 83.614917) rotate(-45.000000) translate(-63.022601, -83.614917) translate(33.522601, 46.614917)" stroke="#B0BDC9">
                        <use id="Combined-Shape" mask="url(#mask-2)" fill="#EFF9FF" xlink:href="#path-1"></use>
                        <use id="Line" mask="url(#mask-4)" fill="#FFFFFF" xlink:href="#path-3"></use>
                    </g>
                    <g id="无聚焦任务" transform="translate(78.709484, 71.388399) rotate(-15.000000) translate(-78.709484, -71.388399) translate(42.209484, 25.888399)">
                        <use id="Combined-Shape" stroke="#B0BDC9" mask="url(#mask-6)" fill="#FFFFFF" xlink:href="#path-5"></use>
                        <g id="Line">
                            <use fill="#EFF9FF" fill-rule="evenodd" xlink:href="#path-7"></use>
                            <use stroke="#B0BDC9" mask="url(#mask-8)" stroke-width="1" xlink:href="#path-7"></use>
                        </g>
                        <use id="Line" stroke="#B0BDC9" mask="url(#mask-10)" fill="#EFF9FF" xlink:href="#path-9"></use>
                        <use id="Line" stroke="#B0BDC9" mask="url(#mask-12)" fill="#EFF9FF" xlink:href="#path-11"></use>
                    </g>
                    <path d="M21.8846177,10 C13.1307706,13.7732099 13.281699,29.1679065 16.7530521,23.5835558 C20.2244053,17.9992051 2.86763955,25.545625 0,29.6206927" id="Line" stroke="#B0BDC9" stroke-width="0.5" stroke-linecap="square"></path>
                    <path d="M61.7645299,4.18965366 C56.5799134,6.42440214 56.6693034,15.5421759 58.725272,12.2347482 C60.7812406,8.92732043 50.5013976,13.3968174 48.8029887,15.8103463" id="Line" stroke="#B0BDC9" stroke-width="0.5" stroke-linecap="square" transform="translate(55.283759, 10.000000) rotate(24.000000) translate(-55.283759, -10.000000) "></path>
                    <path d="M133.362876,29.4068661 C130.072514,30.8251256 130.129244,36.6116245 131.434043,34.5126004 C132.738842,32.4135763 126.214848,35.2500954 125.136971,36.781816" id="Line" stroke="#B0BDC9" stroke-width="0.5" stroke-linecap="square" transform="translate(129.249923, 33.094341) rotate(60.000000) translate(-129.249923, -33.094341) "></path>
                    <circle id="Oval-4" stroke="#B0BDC9" stroke-width="0.5" fill="#EFF9FF" cx="4.5" cy="73.5" r="2.5"></circle>
                    <circle id="Oval-4" stroke="#B0BDC9" stroke-width="0.5" fill="#EFF9FF" cx="74.5" cy="12.5" r="2.5"></circle>
                    <circle id="Oval-4" stroke="#B0BDC9" stroke-width="0.5" fill="#EFF9FF" cx="108" cy="5" r="5"></circle>
                    <circle id="Oval-4" stroke="#B0BDC9" stroke-width="0.5" fill="#EFF9FF" cx="96.5" cy="38.5" r="2.5"></circle>
                    <circle id="Oval-4" stroke="#B0BDC9" stroke-width="0.5" fill="#EFF9FF" cx="134.5" cy="71.5" r="2.5"></circle>
                    <circle id="Oval-4" stroke="#B0BDC9" stroke-width="0.5" fill="#EFF9FF" cx="32.5" cy="52.5" r="3.5"></circle>
                    <circle id="Oval-4" stroke="#B0BDC9" stroke-width="0.5" fill="#EFF9FF" cx="36.5" cy="106.5" r="3.5"></circle>
                    <circle id="Oval-4" stroke="#B0BDC9" stroke-width="0.5" fill="#EFF9FF" cx="120.5" cy="53.5" r="2.5"></circle>
                    <g id="放大镜" transform="translate(94.000000, 63.000000)" stroke="#B0BDC9">
                        <path d="M30.6359907,52.2248925 C31.0363377,53.2543565 32.1954286,53.7643564 33.2248925,53.3640093 C34.2543565,52.9636623 34.7643564,51.8045714 34.3640093,50.7751075 L27.3640093,32.7751075 C26.9636623,31.7456435 25.8045714,31.2356436 24.7751075,31.6359907 C23.7456435,32.0363377 23.2356436,33.1954286 23.6359907,34.2248925 L30.6359907,52.2248925 Z" id="Line" stroke-width="0.5" fill="#EFF9FF"></path>
                        <circle id="Oval" stroke-width="0.5" fill="#FFFFFF" cx="18.5" cy="18.5" r="13.5"></circle>
                        <path d="M18.5,37 C28.7172679,37 37,28.7172679 37,18.5 C37,8.28273213 28.7172679,0 18.5,0 C8.28273213,0 0,8.28273213 0,18.5 C0,28.7172679 8.28273213,37 18.5,37 Z M18.5,32 C25.9558441,32 32,25.9558441 32,18.5 C32,11.0441559 25.9558441,5 18.5,5 C11.0441559,5 5,11.0441559 5,18.5 C5,25.9558441 11.0441559,32 18.5,32 Z" id="Combined-Shape" stroke-width="0.5" fill="#EFF9FF"></path>
                        <path d="M27,14.5 C27,14.5 28.3204116,16.6470641 28.0307682,19.2538542 C27.7411249,21.8606443 26.5,23.5 26.5,23.5" id="Line" stroke-linecap="round" stroke-linejoin="round"></path>
                    </g>
                </g>
                <rect id="无任务配图" x="0" y="0" width="140" height="140"></rect>
            </g>
        </g>
    </g>
</svg>